PathFileType	4	(X/Y/Z)	E:\Qualisys_Data\Carbon_Farble_Plate\Data\Amateur_Runner\S14\T1\S14T1V14_c3d.trc
DataRate	CameraRate	NumFrames	NumMarkers	Units	OrigDataRate	OrigDataStartFrame	OrigNumFrames
200.000000	200.000000	4	39	mm	200.000000	86	344
Frame#	Time	LSHO			RSHO			LICST			RICST			LASIS			LHEEL			RASIS			LTROC			RTROC			SACR			LTH1			LSK4			LTH2			LTH3			RHM5			LSK2			LTH4			RTH1			LTOE			RTH2			RTH3			RTH4			LLEP			RLEP			LSK1			LSK3			RSK1			LHM5			RSK2			LFT1			RSK3			RSK4			LLME			RLME			RTOE			RHEEL			RFT1			RFT2			LFT2			
		X1	Y1	Z1	X2	Y2	Z2	X3	Y3	Z3	X4	Y4	Z4	X5	Y5	Z5	X6	Y6	Z6	X7	Y7	Z7	X8	Y8	Z8	X9	Y9	Z9	X10	Y10	Z10	X11	Y11	Z11	X12	Y12	Z12	X13	Y13	Z13	X14	Y14	Z14	X15	Y15	Z15	X16	Y16	Z16	X17	Y17	Z17	X18	Y18	Z18	X19	Y19	Z19	X20	Y20	Z20	X21	Y21	Z21	X22	Y22	Z22	X23	Y23	Z23	X24	Y24	Z24	X25	Y25	Z25	X26	Y26	Z26	X27	Y27	Z27	X28	Y28	Z28	X29	Y29	Z29	X30	Y30	Z30	X31	Y31	Z31	X32	Y32	Z32	X33	Y33	Z33	X34	Y34	Z34	X35	Y35	Z35	X36	Y36	Z36	X37	Y37	Z37	X38	Y38	Z38	X39	Y39	Z39	

87	0.43	-1331.341918945312	1479.794799804688	-484.8030090332031	-1218.443359375	1475.417358398438	-210.8630065917969	-1336.307495117188	1032.776489257812	-454.2172241210938	-1287.884155273438	1029.767822265625	-184.5397186279297	-1292.759765625	980.9268188476562	-430.272216796875	-1275.50439453125	136.4804229736328	-332.6797485351562	-1271.072265625	983.2372436523438	-201.8547821044922	-1421.9453125	915.8568725585938	-471.2806396484375	-1432.2177734375	961.0733642578124	-142.1441802978516	-1448.406494140625	1045.758666992188	-310.6364440917969	-1249.5068359375	716.941162109375	-471.177978515625	-1264.147338867188	351.5992736816406	-421.0252380371094	-1314.739868164062	682.153076171875	-446.6834106445312	-1195.836669921875	634.0631713867188	-450.1162719726562	-1821.234130859375	125.0836944580078	-189.3454132080078	-1256.883056640625	448.8600769042969	-439.1318969726562	-1265.489990234375	599.4226684570312	-433.1131896972656	-1392.448486328125	692.1873779296875	-150.1770935058594	-1021.16455078125	147.9821014404297	-384.94091796875	-1462.707153320312	724.4252319335938	-141.3451080322266	-1429.574462890625	602.3154907226562	-176.3868713378906	-1507.408325195312	634.5052490234375	-160.3430328369141	-1196.938110351562	559.3308715820312	-441.4164733886719	-1521.0966796875	558.4327392578125	-169.7648315429688	-1174.779418945312	445.158203125	-441.7021484375	-1181.90576171875	344.3033752441406	-426.278564453125	-1583.014404296875	447.7769470214844	-167.6584167480469	-1092.283081054688	120.9505462646484	-435.97216796875	-1648.34814453125	503.5790405273438	-166.0505676269531	-1257.894165039062	116.4656600952148	-307.939208984375	-1654.901977539062	373.4407348632812	-178.703125	-1709.95556640625	430.1144714355469	-178.4882202148438	-1224.603637695312	168.6918487548828	-399.3546752929688	-1801.058471679688	279.9935302734375	-195.5400390625	-1783.342163085938	68.58717346191406	-254.8065338134766	-1839.64794921875	321.5492858886719	-247.6518096923828	-1859.115600585938	303.0388793945312	-282.5559387207031	-1862.207275390625	311.6080017089844	-223.5714569091797	-1275.421508789062	108.4968948364258	-361.2471313476562
88	0.435	-1316.086791992188	1479.027099609375	-485.3919372558594	-1202.098266601562	1475.273681640625	-211.6871795654297	-1319.838745117188	1031.570068359375	-453.8632202148438	-1271.775390625	1030.3212890625	-184.5508575439453	-1276.840576171875	979.98388671875	-429.4805603027344	-1249.793090820312	130.6032562255859	-335.1103210449219	-1255.0546875	983.095703125	-201.7146148681641	-1406.689331054688	914.77978515625	-470.5925598144531	-1416.745361328125	961.5073852539062	-141.7386627197266	-1432.814208984375	1045.882934570312	-311.1143798828125	-1235.464233398438	714.085693359375	-470.7304992675781	-1242.36083984375	347.050537109375	-419.9202270507812	-1301.6259765625	680.912841796875	-446.3010559082031	-1182.823486328125	631.3453369140625	-449.3933410644531	-1812.790893554688	131.4555206298828	-187.6215209960938	-1239.990112304688	445.03173828125	-437.8941040039062	-1252.61767578125	597.3568115234375	-431.47802734375	-1376.546997070312	692.781982421875	-149.5842742919922	-994.6056518554688	152.4359893798828	-384.3012084960938	-1447.411865234375	724.8109130859375	-140.607666015625	-1414.594116210938	602.1722412109375	-176.8880767822266	-1491.777709960938	634.563232421875	-159.6486663818359	-1183.369140625	557.0836791992188	-439.9258422851562	-1505.905151367188	558.7696533203125	-169.0607604980469	-1157.837768554688	443.7771606445312	-440.7088012695312	-1161.564331054688	342.5605773925781	-425.9024658203125	-1569.231323242188	448.8826599121094	-166.5867462158203	-1063.570678710938	122.0019836425781	-435.6326293945312	-1633.403076171875	505.5036010742188	-164.5984497070312	-1230.075317382812	111.9167175292969	-308.3681335449219	-1642.508422851562	375.2854919433594	-178.2946929931641	-1696.822509765625	433.5549926757812	-177.5658416748047	-1199.10888671875	165.1772003173828	-400.1077880859375	-1790.076538085938	285.6154174804688	-194.7177276611328	-1775.287475585938	72.70868682861328	-252.6898651123047	-1827.692626953125	327.5858154296875	-247.7251129150391	-1847.136352539062	308.8222961425781	-281.7319030761719	-1850.68994140625	317.8381042480469	-222.9998779296875	-1244.5205078125	101.8506469726562	-360.6525573730469
89	0.44	-1300.698974609375	1478.337768554688	-485.9259948730469	-1185.810913085938	1475.186401367188	-212.70263671875	-1303.44580078125	1030.247802734375	-453.7360229492188	-1256.188842773438	1029.98779296875	-185.0833892822266	-1261.015625	978.7001342773438	-429.1908264160156	-1223.248168945312	126.0739669799805	-336.00244140625	-1239.537841796875	982.9540405273438	-201.2185211181641	-1391.538330078125	913.3764038085938	-470.1523132324219	-1401.044677734375	961.7525634765624	-141.9219360351562	-1416.408325195312	1045.149780273438	-311.3415832519531	-1221.703002929688	711.4365234375	-470.7304077148438	-1222.673828125	343.3899841308594	-419.9530029296875	-1287.063354492188	679.1420288085938	-445.0108337402344	-1169.720947265625	628.0513305664062	-448.7117004394531	-1803.46435546875	136.8264007568359	-186.3334808349609	-1222.912475585938	441.7529907226562	-437.218017578125	-1239.611572265625	595.6207885742188	-429.9866943359375	-1360.373779296875	692.337646484375	-149.463134765625	-968.43310546875	155.9229583740234	-383.4722900390625	-1431.18408203125	724.875	-140.2970886230469	-1398.692504882812	602.143798828125	-175.37548828125	-1476.819580078125	634.4679565429688	-159.6840362548828	-1169.77099609375	554.89599609375	-438.2584533691406	-1490.744506835938	559.5030517578125	-168.4716033935547	-1140.838500976562	442.7252807617188	-439.6634521484375	-1142.23095703125	341.1504516601562	-425.6636657714844	-1555.050048828125	449.7482604980469	-165.8348999023438	-1035.965209960938	122.9767227172852	-435.410400390625	-1618.219970703125	507.8866577148438	-163.6476593017578	-1203.076782226562	107.4472427368164	-309.3037109375	-1630.1552734375	378.5836791992188	-175.5422973632812	-1682.840209960938	437.3234252929688	-176.3771057128906	-1173.170654296875	162.2247314453125	-400.3495788574219	-1777.642578125	292.127685546875	-194.37646484375	-1766.634033203125	78.95423889160156	-251.2097015380859	-1816.454711914062	333.7437438964844	-246.9489898681641	-1837.016479492188	314.6808471679688	-282.1115112304688	-1840.214721679688	324.2270202636719	-223.2381591796875	-1217.41259765625	97.34110260009766	-361.4960327148438
90	0.445	-1285.333251953125	1477.36572265625	-486.1885070800781	-1169.864501953125	1474.3818359375	-213.7038269042969	-1286.8134765625	1028.4228515625	-453.7579650878906	-1240.060302734375	1029.189086914062	-184.8420257568359	-1243.720581054688	976.8051147460938	-428.0936584472656	-1197.53076171875	121.8127670288086	-336.5623168945312	-1223.669677734375	982.2748413085938	-200.9501495361328	-1375.96142578125	911.3943481445312	-469.4231262207031	-1385.1669921875	961.5975341796876	-142.2621765136719	-1400.676147460938	1044.523803710938	-311.8011474609375	-1207.808715820312	708.6497802734375	-471.6583251953125	-1203.126342773438	339.8586120605469	-419.0342712402344	-1273.702270507812	677.078857421875	-444.1917419433594	-1156.013061523438	625.1139526367188	-448.2821044921875	-1793.450805664062	142.7840881347656	-184.4868469238281	-1206.290771484375	438.5570373535156	-436.3713684082031	-1226.517333984375	593.114501953125	-427.9456176757812	-1344.054443359375	691.5551147460938	-149.3016204833984	-943.3231201171876	159.5392913818359	-382.775390625	-1414.63134765625	723.8052368164062	-140.1943817138672	-1382.041625976562	601.3704223632812	-175.0958099365234	-1459.445556640625	633.089111328125	-158.6022644042969	-1155.938720703125	552.3782348632812	-436.8020629882812	-1474.3525390625	558.795654296875	-167.4605865478516	-1124.588989257812	441.3202819824219	-438.4268188476562	-1122.73974609375	339.9033203125	-425.4464416503906	-1541.078125	449.8128356933594	-164.9985198974609	-1009.833984375	124.0874633789062	-435.1557312011719	-1602.9208984375	509.5099792480469	-162.34521484375	-1177.026733398438	103.7329254150391	-310.1944885253906	-1617.642700195312	380.542236328125	-175.1661682128906	-1668.888549804688	440.4996948242188	-175.6576385498047	-1148.60595703125	159.7024993896484	-401.0807189941406	-1768.907348632812	297.0413513183594	-194.7354888916016	-1757.331787109375	84.09994506835938	-249.33642578125	-1805.494262695312	338.7445373535156	-247.0749053955078	-1825.837890625	319.941162109375	-281.3613891601562	-1829.674926757812	330.4436340332031	-223.3406829833984	-1190.42919921875	92.74637603759766	-362.0343933105469
